<svg xmlns="http://www.w3.org/2000/svg" width="292" height="55" viewBox="0 0 292 55">
  <g id="Group_66" dataName="Group 66" transform="translate(-118 -51)">
    <text id="Meetpoint" transform="translate(169 95)" fill="#115e59" fontSize="45" fontFamily="Montserrat-SemiBold, Montserrat" fontWeight="600"><tspan x="0" y="0">Meetpoint</tspan></text>
    <g id="Component_1_6" dataName="Component 1 – 6" transform="translate(118 57)">
      <g id="Path_1" dataName="Path 1" transform="translate(0 30)" fill="none">
        <path d="M20.5,0C31.822,0,41,3.134,41,7s-9.178,7-20.5,7S0,10.866,0,7,9.178,0,20.5,0Z" stroke="none"/>
        <path d="M 20.5 5 C 16.48974990844727 5 12.55960083007812 5.442130088806152 9.433530807495117 6.244949817657471 C 8.4669189453125 6.493189334869385 7.667507171630859 6.751889705657959 7.015472412109375 7 C 7.667507171630859 7.248110294342041 8.4669189453125 7.506810665130615 9.433530807495117 7.755050182342529 C 12.55960083007812 8.557869911193848 16.48974990844727 9 20.5 9 C 24.51025009155273 9 28.44039916992188 8.557869911193848 31.56647109985352 7.755050182342529 C 32.5330810546875 7.506810665130615 33.33249282836914 7.248110294342041 33.98452758789062 7 C 33.33249282836914 6.751889705657959 32.5330810546875 6.493189334869385 31.56647109985352 6.244949817657471 C 28.44039916992188 5.442130088806152 24.51025009155273 5 20.5 5 M 20.5 0 C 31.82184028625488 0 41 3.134010314941406 41 7 C 41 10.86598968505859 31.82184028625488 14 20.5 14 C 9.178159713745117 14 0 10.86598968505859 0 7 C 0 3.134010314941406 9.178159713745117 0 20.5 0 Z" stroke="none" fill="#115e59"/>
      </g>
      <path id="location" d="M34.4,13.913A15.458,15.458,0,0,0,18.994,1.75h-.018c-6.31,0-13.531,3.758-15.408,12.145-2.091,9.367,3.557,17.3,8.669,22.293a9.586,9.586,0,0,0,13.5,0C30.845,31.2,36.494,23.28,34.4,13.913Zm-15.408,9.1a5.719,5.719,0,1,1,5.631-5.718A5.674,5.674,0,0,1,18.994,23.008Z" transform="translate(1.375 -1.75)" fill="#115e59"/>
    </g>
  </g>
</svg>
